Coordinates
version=1
nRows=54
nColumns=12
inDegrees=yes

Units are S.I. units (second, meters, Newtons, ...)
Angles are in degrees

endheader
time	SC_y	SC_z	SC_x	AC_y	AC_z	AC_x	GH_y	GH_z	GH_yy	EL_x	PS_y
       0.0              -21.81         0.4894          75.84          36.65         -6.885          6.408          61.89          74.13         -63.01          94.25          126.2
   0.04129              -21.82         0.4887          75.84          36.65         -6.885          6.406          61.91          74.14         -62.98          94.25          126.2
   0.08258              -21.82         0.4879          75.84          36.65         -6.885          6.404          61.92          74.14         -62.95          94.26          126.2
    0.1239              -21.83         0.4871          75.84          36.65         -6.884          6.402          61.93          74.14         -62.91          94.26          126.2
    0.1652              -21.83         0.4862          75.84          36.65         -6.884          6.399          61.95          74.14         -62.88          94.27          126.2
    0.2065              -21.84         0.4852          75.84          36.65         -6.884          6.397          61.97          74.14         -62.84          94.27          126.1
    0.2477              -21.84         0.4842          75.84          36.64         -6.883          6.394          61.98          74.15          -62.8          94.28          126.1
     0.289              -21.85         0.4831          75.84          36.64         -6.883          6.391           62.0          74.15         -62.75          94.29          126.1
    0.3303              -21.86         0.4819          75.84          36.64         -6.882          6.387          62.02          74.15          -62.7          94.29          126.1
    0.3716              -21.87         0.4807          75.84          36.64         -6.882          6.384          62.04          74.15         -62.65           94.3          126.1
    0.4129              -21.87         0.4793          75.84          36.64         -6.881           6.38          62.07          74.16          -62.6          94.31          126.1
    0.4542              -21.88         0.4779          75.84          36.64         -6.881          6.376          62.09          74.16         -62.54          94.32          126.1
    0.4955              -21.89         0.4763          75.84          36.64          -6.88          6.372          62.12          74.16         -62.48          94.33          126.0
    0.5368               -21.9         0.4747          75.84          36.64         -6.879          6.367          62.15          74.17         -62.41          94.34          126.0
    0.5781              -21.91         0.4728          75.84          36.64         -6.879          6.362          62.18          74.17         -62.33          94.35          126.0
    0.6194              -21.92         0.4709          75.84          36.64         -6.878          6.356          62.21          74.18         -62.25          94.36          126.0
    0.6606              -21.94         0.4687          75.84          36.64         -6.877           6.35          62.25          74.18         -62.16          94.37          125.9
    0.7019              -21.95         0.4664          75.84          36.64         -6.876          6.344          62.29          74.19         -62.07          94.39          125.9
    0.7432              -21.97         0.4638          75.84          36.64         -6.875          6.337          62.34          74.19         -61.96           94.4          125.9
    0.7845              -21.98          0.461          75.84          36.64         -6.874          6.329          62.38           74.2         -61.85          94.42          125.8
    0.8258               -22.0          0.458          75.84          36.63         -6.873           6.32          62.44           74.2         -61.73          94.44          125.8
    0.8671              -22.02         0.4546          75.84          36.63         -6.871          6.311           62.5          74.21         -61.59          94.46          125.8
    0.9084              -22.04         0.4508          75.84          36.63          -6.87            6.3          62.56          74.22         -61.43          94.48          125.7
    0.9497              -22.07         0.4467          75.84          36.63         -6.868          6.289          62.63          74.23         -61.27          94.51          125.7
     0.991               -22.1         0.4421          75.84          36.63         -6.866          6.276          62.71          74.24         -61.08          94.53          125.6
     1.032              -22.13          0.437          75.84          36.63         -6.864          6.261           62.8          74.25         -60.87          94.57          125.5
     1.074              -22.16         0.4312          75.84          36.62         -6.862          6.245           62.9          74.27         -60.63           94.6          125.5
     1.115               -22.2         0.4248          75.84          36.62          -6.86          6.227          63.01          74.28         -60.37          94.64          125.4
     1.156              -22.25         0.4174          75.84          36.62         -6.857          6.207          63.14           74.3         -60.07          94.68          125.3
     1.197               -22.3         0.4092          75.85          36.61         -6.853          6.183          63.28          74.32         -59.73          94.73          125.2
     1.239              -22.35         0.3997          75.85          36.61          -6.85          6.157          63.44          74.34         -59.35          94.79          125.1
      1.28              -22.42         0.3888          75.85          36.61         -6.845          6.127          63.63          74.36          -58.9          94.86          124.9
     1.321              -22.49         0.3763          75.85           36.6          -6.84          6.091          63.85          74.39         -58.39          94.93          124.8
     1.363              -22.58         0.3617          75.85          36.59         -6.834          6.051           64.1          74.42          -57.8          95.02          124.6
     1.404              -22.68         0.3446          75.85          36.59         -6.828          6.003           64.4          74.46          -57.1          95.13          124.4
     1.445               -22.8         0.3245          75.85          36.58         -6.819          5.946          64.74          74.51         -56.28          95.25          124.1
     1.486              -22.95         0.3006          75.85          36.57          -6.81           5.88          65.16          74.56          -55.3          95.39          123.8
     1.528              -23.12          0.272          75.85          36.56         -6.799          5.799          65.65          74.63         -54.13          95.57          123.4
     1.569              -23.33         0.2373          75.85          36.54         -6.785          5.702          66.25          74.71         -52.72          95.78          123.0
      1.61              -23.58          0.195          75.85          36.52         -6.768          5.584          66.98           74.8         -50.99          96.03          122.5
     1.652               -23.9         0.1428          75.86           36.5         -6.747          5.437          67.89          74.92         -48.86          96.35          121.8
     1.693              -24.29        0.07761          75.86          36.48         -6.721          5.255          69.01          75.07          -46.2          96.75          121.0
     1.734              -24.78      -0.004463          75.86          36.44         -6.688          5.025          70.43          75.25         -42.85          97.24          119.9
     1.775              -25.41        -0.1088          75.87           36.4         -6.646          4.733          72.24          75.49         -38.59          97.88          118.6
     1.817              -26.21        -0.2423          75.87          36.34         -6.593          4.359          74.54          75.79         -33.14          98.69          116.9
     1.858              -27.24        -0.4137          75.88          36.27         -6.525          3.879          77.51          76.18         -26.15          99.73          114.8
     1.899              -28.56        -0.6326          75.89          36.18         -6.437          3.266          81.29          76.68         -17.21          101.1          112.0
     1.941              -30.21        -0.9078           75.9          36.06         -6.327          2.495          86.05           77.3         -5.976          102.7          108.5
     1.982              -32.23         -1.243          75.91          35.92         -6.193          1.555          91.85          78.06          7.715          104.8          104.3
     2.023              -34.56         -1.632          75.93          35.76         -6.038         0.4663          98.57          78.94          23.58          107.1          99.34
     2.065              -37.09         -2.053          75.94          35.59          -5.87        -0.7128          105.9           79.9          40.77          109.7          94.01
     2.106              -39.62         -2.474          75.96          35.41         -5.702         -1.892          113.1          80.85          57.95          112.2          88.68
     2.147              -41.96         -2.863          75.98          35.25         -5.547         -2.981          119.9          81.73          73.82          114.6          83.75
     2.188              -43.98         -3.198          75.99          35.11         -5.413          -3.92          125.7           82.5          87.51          116.6          79.51
